<svg width="1042.95400390625px" height="166.4px" xmlns="http://www.w3.org/2000/svg" viewBox="-271.47700195312495 -8.200000000000003 1042.95400390625 166.4" style="background:#fff" preserveAspectRatio="xMidYMid"><defs><filter id="editing-marble" x="-100%" y="-100%" width="300%" height="300%"><feFlood flood-color="#003554" result="flood-1"></feFlood><feComposite operator="in" in="flood-1" in2="SourceAlpha" result="flood-2"></feComposite><feTurbulence baseFrequency="0.25" type="fractalNoise" numOctaves="1" seed="2" result="bs-1"></feTurbulence><feGaussianBlur stdDeviation="0" in="flood-2" result="bs-2"></feGaussianBlur><feDisplacementMap scale="110" in="bs-2" in2="bs-1" result="bs-3"></feDisplacementMap><feComposite operator="in" in="bs-3" in2="SourceAlpha" result="texture"></feComposite><feMerge><feMergeNode in="SourceGraphic"></feMergeNode><feMergeNode in="texture"></feMergeNode></feMerge></filter></defs><g filter="url(#editing-marble)"><g transform="translate(-127.52872943878174, 112.44000244140625)"><path d="M70.72 0L53.20 0L53.20-19.84L53.20-19.84Q53.20-23.52 53.48-27.40L53.48-27.40L53.48-27.40Q53.76-31.28 54.08-33.92L54.08-33.92L54.08-33.92Q54.40-36.56 54.48-37.28L54.48-37.28L54.16-37.28L44 0L30.16 0L19.92-37.20L19.60-37.20L19.60-37.20Q19.68-36.48 20.04-33.88L20.04-33.88L20.04-33.88Q20.40-31.28 20.72-27.40L20.72-27.40L20.72-27.40Q21.04-23.52 21.04-19.84L21.04-19.84L21.04 0L4.80 0L4.80-55.04L29.76-55.04L38.08-23.28L38.40-23.28L46.64-55.04L70.72-55.04L70.72 0ZM102.16-43.20L102.16-43.20Q113.76-43.20 119.88-37.76L119.88-37.76L119.88-37.76Q126-32.32 126-21.12L126-21.12L126-18.40L94.32-18.40L94.32-18.40Q94.32-13.84 96.36-11.52L96.36-11.52L96.36-11.52Q98.40-9.20 102.80-9.20L102.80-9.20L102.80-9.20Q106.80-9.20 108.68-10.88L108.68-10.88L108.68-10.88Q110.56-12.56 110.56-15.36L110.56-15.36L126-15.36L126-15.36Q126-7.68 120.16-3.36L120.16-3.36L120.16-3.36Q114.32 0.96 103.12 0.96L103.12 0.96L103.12 0.96Q91.36 0.96 84.88-4.52L84.88-4.52L84.88-4.52Q78.40-10 78.40-21.12L78.40-21.12L78.40-21.12Q78.40-32 84.72-37.60L84.72-37.60L84.72-37.60Q91.04-43.20 102.16-43.20L102.16-43.20ZM102.80-33.04L102.80-33.04Q95.28-33.04 94.40-25.92L94.40-25.92L109.92-25.92L109.92-25.92Q109.92-29.20 108.04-31.12L108.04-31.12L108.04-31.12Q106.16-33.04 102.80-33.04L102.80-33.04ZM150.16 0L134.24 0L134.24-58L150.16-58L150.16 0ZM176.80-47.20L160.88-47.20L160.88-58L176.80-58L176.80-47.20ZM176.80 0L160.88 0L160.88-42.24L176.80-42.24L176.80 0ZM202.88-37.84L202.88-37.84Q205.44-40.40 208.88-41.80L208.88-41.80L208.88-41.80Q212.32-43.20 216.08-43.20L216.08-43.20L216.08-43.20Q223.44-43.20 227.12-39.12L227.12-39.12L227.12-39.12Q230.80-35.04 230.80-27.36L230.80-27.36L230.80 0L214.88 0L214.88-25.44L214.88-25.44Q214.88-28.16 213.48-29.80L213.48-29.80L213.48-29.80Q212.08-31.44 209.52-31.44L209.52-31.44L209.52-31.44Q206.56-31.44 204.72-29.52L204.72-29.52L204.72-29.52Q202.88-27.60 202.88-24.80L202.88-24.80L202.88 0L186.96 0L186.96-58L202.88-58L202.88-37.84ZM323.68 0L304.96 0L302.64-7.76L283.36-7.76L281.04 0L262.96 0L283.04-55.04L303.60-55.04L323.68 0ZM292.88-39.68L287.04-20.08L298.96-20.08L293.20-39.68L292.88-39.68ZM354.88-43.28L354.88-43.28Q356.72-43.28 358.16-42.84L358.16-42.84L358.16-42.84Q359.60-42.40 359.60-42.32L359.60-42.32L359.60-28.96L354.48-28.96L354.48-28.96Q349.52-28.96 347.32-26.40L347.32-26.40L347.32-26.40Q345.12-23.84 345.12-18.80L345.12-18.80L345.12 0L329.20 0L329.20-42.24L342.24-42.24L343.28-35.84L343.28-35.84Q344.72-39.52 347.84-41.40L347.84-41.40L347.84-41.40Q350.96-43.28 354.88-43.28L354.88-43.28ZM384.80-43.20L384.80-43.20Q393.28-43.20 399.16-39.88L399.16-39.88L399.16-39.88Q405.04-36.56 405.04-29.60L405.04-29.60L390.24-29.60L390.24-29.60Q390.24-31.92 388.16-32.88L388.16-32.88L388.16-32.88Q386.72-33.68 384.56-33.68L384.56-33.68L384.56-33.68Q378.80-33.68 378.80-30.96L378.80-30.96L378.80-30.96Q378.80-29.44 380.80-28.80L380.80-28.80L380.80-28.80Q382.80-28.16 387.36-27.44L387.36-27.44L387.36-27.44Q392.96-26.64 396.72-25.56L396.72-25.56L396.72-25.56Q400.48-24.48 403.28-21.72L403.28-21.72L403.28-21.72Q406.08-18.96 406.08-14L406.08-14L406.08-14Q406.08-5.92 400.04-2.48L400.04-2.48L400.04-2.48Q394.00 0.96 384.24 0.96L384.24 0.96L384.24 0.96Q378.64 0.96 373.68-0.60L373.68-0.60L373.68-0.60Q368.72-2.16 365.60-5.44L365.60-5.44L365.60-5.44Q362.48-8.72 362.48-13.76L362.48-13.76L377.28-13.76L377.28-13.44L377.28-13.44Q377.36-10.72 379.56-9.64L379.56-9.64L379.56-9.64Q381.76-8.56 384.24-8.56L384.24-8.56L384.24-8.56Q390.88-8.56 390.88-11.68L390.88-11.68L390.88-11.68Q390.88-13.28 388.80-14L388.80-14L388.80-14Q386.72-14.72 382.00-15.52L382.00-15.52L382.00-15.52Q376.32-16.48 372.68-17.60L372.68-17.60L372.68-17.60Q369.04-18.72 366.32-21.40L366.32-21.40L366.32-21.40Q363.60-24.08 363.60-28.88L363.60-28.88L363.60-28.88Q363.60-36.64 369.48-39.92L369.48-39.92L369.48-39.92Q375.36-43.20 384.80-43.20L384.80-43.20ZM430.08 0L414.16 0L414.16-58L430.08-58L430.08 0ZM461.12-43.20L461.12-43.20Q470.80-43.20 476.88-39.96L476.88-39.96L476.88-39.96Q482.96-36.72 482.96-29.44L482.96-29.44L482.96-12.96L482.96-12.96Q482.96-11.60 483.60-10.72L483.60-10.72L483.60-10.72Q484.24-9.84 485.52-9.84L485.52-9.84L488.40-9.84L488.40-0.64L488.40-0.64Q488.16-0.48 487.16-0.12L487.16-0.12L487.16-0.12Q486.16 0.24 484.32 0.60L484.32 0.60L484.32 0.60Q482.48 0.96 480.08 0.96L480.08 0.96L480.08 0.96Q475.44 0.96 472.44-0.44L472.44-0.44L472.44-0.44Q469.44-1.84 468.32-4.32L468.32-4.32L468.32-4.32Q465.28-1.92 461.52-0.48L461.52-0.48L461.52-0.48Q457.76 0.96 452.72 0.96L452.72 0.96L452.72 0.96Q437.84 0.96 437.84-10.88L437.84-10.88L437.84-10.88Q437.84-17.04 441.16-20.28L441.16-20.28L441.16-20.28Q444.48-23.52 450.72-24.72L450.72-24.72L450.72-24.72Q456.96-25.92 467.04-25.92L467.04-25.92L467.04-28L467.04-28Q467.04-30.48 465.32-31.76L465.32-31.76L465.32-31.76Q463.60-33.04 460.88-33.04L460.88-33.04L460.88-33.04Q458.40-33.04 456.60-32.16L456.60-32.16L456.60-32.16Q454.80-31.28 454.80-29.36L454.80-29.36L454.80-29.04L439.12-29.04L439.12-29.04Q439.04-29.44 439.04-30.16L439.04-30.16L439.04-30.16Q439.04-36.16 444.76-39.68L444.76-39.68L444.76-39.68Q450.48-43.20 461.12-43.20L461.12-43.20ZM467.04-18.40L467.04-18.40Q460.24-18.40 457.00-16.92L457.00-16.92L457.00-16.92Q453.76-15.44 453.76-12.96L453.76-12.96L453.76-12.96Q453.76-8.96 459.20-8.96L459.20-8.96L459.20-8.96Q462.32-8.96 464.68-10.64L464.68-10.64L464.68-10.64Q467.04-12.32 467.04-14.80L467.04-14.80L467.04-18.40ZM522.72-43.20L522.72-43.20Q530.08-43.20 533.76-39.12L533.76-39.12L533.76-39.12Q537.44-35.04 537.44-27.36L537.44-27.36L537.44 0L521.52 0L521.52-25.44L521.52-25.44Q521.52-28.16 520.12-29.80L520.12-29.80L520.12-29.80Q518.72-31.44 516.16-31.44L516.16-31.44L516.16-31.44Q513.20-31.44 511.36-29.52L511.36-29.52L511.36-29.52Q509.52-27.60 509.52-24.80L509.52-24.80L509.52 0L493.60 0L493.60-42.24L506.64-42.24L507.68-35.84L507.68-35.84Q510.16-39.20 514.20-41.20L514.20-41.20L514.20-41.20Q518.24-43.20 522.72-43.20L522.72-43.20ZM562.88-26.08L576.40-42.24L594.96-42.24L579.36-25.20L595.36 0L577.28 0L568.40-14.48L562.88-9.12L562.88 0L546.96 0L546.96-58.08L562.88-58.08L562.88-26.08ZM621.20-43.20L621.20-43.20Q630.88-43.20 636.96-39.96L636.96-39.96L636.96-39.96Q643.04-36.72 643.04-29.44L643.04-29.44L643.04-12.96L643.04-12.96Q643.04-11.60 643.68-10.72L643.68-10.72L643.68-10.72Q644.32-9.84 645.60-9.84L645.60-9.84L648.48-9.84L648.48-0.64L648.48-0.64Q648.24-0.48 647.24-0.12L647.24-0.12L647.24-0.12Q646.24 0.24 644.40 0.60L644.40 0.60L644.40 0.60Q642.56 0.96 640.16 0.96L640.16 0.96L640.16 0.96Q635.52 0.96 632.52-0.44L632.52-0.44L632.52-0.44Q629.52-1.84 628.40-4.32L628.40-4.32L628.40-4.32Q625.36-1.92 621.60-0.48L621.60-0.48L621.60-0.48Q617.84 0.96 612.80 0.96L612.80 0.96L612.80 0.96Q597.92 0.96 597.92-10.88L597.92-10.88L597.92-10.88Q597.92-17.04 601.24-20.28L601.24-20.28L601.24-20.28Q604.56-23.52 610.80-24.72L610.80-24.72L610.80-24.72Q617.04-25.92 627.12-25.92L627.12-25.92L627.12-28L627.12-28Q627.12-30.48 625.40-31.76L625.40-31.76L625.40-31.76Q623.68-33.04 620.96-33.04L620.96-33.04L620.96-33.04Q618.48-33.04 616.68-32.16L616.68-32.16L616.68-32.16Q614.88-31.28 614.88-29.36L614.88-29.36L614.88-29.04L599.20-29.04L599.20-29.04Q599.12-29.44 599.12-30.16L599.12-30.16L599.12-30.16Q599.12-36.16 604.84-39.68L604.84-39.68L604.84-39.68Q610.56-43.20 621.20-43.20L621.20-43.20ZM627.12-18.40L627.12-18.40Q620.32-18.40 617.08-16.92L617.08-16.92L617.08-16.92Q613.84-15.44 613.84-12.96L613.84-12.96L613.84-12.96Q613.84-8.96 619.28-8.96L619.28-8.96L619.28-8.96Q622.40-8.96 624.76-10.64L624.76-10.64L624.76-10.64Q627.12-12.32 627.12-14.80L627.12-14.80L627.12-18.40ZM682.72-1.28L682.72-1.28Q679.44 7.60 674.68 12.20L674.68 12.20L674.68 12.20Q669.92 16.80 661.36 16.80L661.36 16.80L661.36 16.80Q656.16 16.80 652.16 15.36L652.16 15.36L652.16 5.84L658.56 5.84L658.56 5.84Q664.56 5.84 665.68 0L665.68 0L648.88-42.24L666-42.24L674.08-14.16L674.64-14.16L682.08-42.24L697.76-42.24L682.72-1.28ZM723.44-43.20L723.44-43.20Q733.12-43.20 739.20-39.96L739.20-39.96L739.20-39.96Q745.28-36.72 745.28-29.44L745.28-29.44L745.28-12.96L745.28-12.96Q745.28-11.60 745.92-10.72L745.92-10.72L745.92-10.72Q746.56-9.84 747.84-9.84L747.84-9.84L750.72-9.84L750.72-0.64L750.72-0.64Q750.48-0.48 749.48-0.12L749.48-0.12L749.48-0.12Q748.48 0.24 746.64 0.60L746.64 0.60L746.64 0.60Q744.80 0.96 742.40 0.96L742.40 0.96L742.40 0.96Q737.76 0.96 734.76-0.44L734.76-0.44L734.76-0.44Q731.76-1.84 730.64-4.32L730.64-4.32L730.64-4.32Q727.60-1.92 723.84-0.48L723.84-0.48L723.84-0.48Q720.08 0.96 715.04 0.96L715.04 0.96L715.04 0.96Q700.16 0.96 700.16-10.88L700.16-10.88L700.16-10.88Q700.16-17.04 703.48-20.28L703.48-20.28L703.48-20.28Q706.80-23.52 713.04-24.72L713.04-24.72L713.04-24.72Q719.28-25.92 729.36-25.92L729.36-25.92L729.36-28L729.36-28Q729.36-30.48 727.64-31.76L727.64-31.76L727.64-31.76Q725.92-33.04 723.20-33.04L723.20-33.04L723.20-33.04Q720.72-33.04 718.92-32.16L718.92-32.16L718.92-32.16Q717.12-31.28 717.12-29.36L717.12-29.36L717.12-29.04L701.44-29.04L701.44-29.04Q701.36-29.44 701.36-30.16L701.36-30.16L701.36-30.16Q701.36-36.16 707.08-39.68L707.08-39.68L707.08-39.68Q712.80-43.20 723.44-43.20L723.44-43.20ZM729.36-18.40L729.36-18.40Q722.56-18.40 719.32-16.92L719.32-16.92L719.32-16.92Q716.08-15.44 716.08-12.96L716.08-12.96L716.08-12.96Q716.08-8.96 721.52-8.96L721.52-8.96L721.52-8.96Q724.64-8.96 727-10.64L727-10.64L727-10.64Q729.36-12.32 729.36-14.80L729.36-14.80L729.36-18.40Z" fill="#00a6fb"></path></g></g><style>text {
  font-size: 64px;
  font-family: Arial Black;
  dominant-baseline: central;
  text-anchor: middle;
}</style></svg>