<svg width="677.164208984375px" height="102.8px" xmlns="http://www.w3.org/2000/svg" viewBox="-88.58210449218751 23.6 677.164208984375 102.8" style="background: rgba(255, 255, 255, 0);" preserveAspectRatio="xMidYMid"><defs><filter id="editing-marble" x="-100%" y="-100%" width="300%" height="300%"><feFlood flood-color="#00a6fb" result="flood-1"></feFlood><feComposite operator="in" in="flood-1" in2="SourceAlpha" result="flood-2"></feComposite><feTurbulence baseFrequency="0.25" type="fractalNoise" numOctaves="1" seed="2" result="bs-1"></feTurbulence><feGaussianBlur stdDeviation="0" in="flood-2" result="bs-2"></feGaussianBlur><feDisplacementMap scale="110" in="bs-2" in2="bs-1" result="bs-3"></feDisplacementMap><feComposite operator="in" in="bs-3" in2="SourceAlpha" result="texture"></feComposite><feMerge><feMergeNode in="SourceGraphic"></feMergeNode><feMergeNode in="texture"></feMergeNode></feMerge></filter></defs><g filter="url(#editing-marble)"><g transform="translate(6.776867151260376, 96.01499938964844)"><path d="M16.34-31.50L16.34-31.50Q22.27-31.50 26.10-29.09L26.10-29.09L26.10-29.09Q29.92-26.68 30.02-21.96L30.02-21.96L30.02-21.42L20.70-21.42L20.70-21.60L20.70-21.60Q20.70-22.95 19.71-23.85L19.71-23.85L19.71-23.85Q18.72-24.75 16.70-24.75L16.70-24.75L16.70-24.75Q14.71-24.75 13.66-24.16L13.66-24.16L13.66-24.16Q12.60-23.58 12.60-22.72L12.60-22.72L12.60-22.72Q12.60-21.51 14.04-20.93L14.04-20.93L14.04-20.93Q15.48-20.34 18.68-19.71L18.68-19.71L18.68-19.71Q22.41-18.95 24.82-18.11L24.82-18.11L24.82-18.11Q27.22-17.28 29.02-15.39L29.02-15.39L29.02-15.39Q30.82-13.50 30.87-10.26L30.87-10.26L30.87-10.26Q30.87-4.77 27.16-2.11L27.16-2.11L27.16-2.11Q23.45 0.54 17.23 0.54L17.23 0.54L17.23 0.54Q9.99 0.54 5.96-1.89L5.96-1.89L5.96-1.89Q1.93-4.32 1.93-10.48L1.93-10.48L11.34-10.48L11.34-10.48Q11.34-8.14 12.55-7.36L12.55-7.36L12.55-7.36Q13.77-6.57 16.34-6.57L16.34-6.57L16.34-6.57Q18.22-6.57 19.46-6.97L19.46-6.97L19.46-6.97Q20.70-7.38 20.70-8.64L20.70-8.64L20.70-8.64Q20.70-9.76 19.33-10.33L19.33-10.33L19.33-10.33Q17.95-10.89 14.85-11.52L14.85-11.52L14.85-11.52Q11.07-12.33 8.59-13.21L8.59-13.21L8.59-13.21Q6.12-14.08 4.27-16.11L4.27-16.11L4.27-16.11Q2.43-18.13 2.43-21.60L2.43-21.60L2.43-21.60Q2.43-26.68 6.37-29.09L6.37-29.09L6.37-29.09Q10.30-31.50 16.34-31.50L16.34-31.50ZM47.48-24.30L47.48-24.30Q53.73-24.30 57.31-21.13L57.31-21.13L57.31-21.13Q60.89-17.95 60.89-11.88L60.89-11.88L60.89-11.88Q60.89-5.80 57.31-2.63L57.31-2.63L57.31-2.63Q53.73 0.54 47.48 0.54L47.48 0.54L47.48 0.54Q41.22 0.54 37.66-2.61L37.66-2.61L37.66-2.61Q34.11-5.76 34.11-11.88L34.11-11.88L34.11-11.88Q34.11-18 37.66-21.15L37.66-21.15L37.66-21.15Q41.22-24.30 47.48-24.30L47.48-24.30ZM47.48-18.22L47.48-18.22Q43.06-18.22 43.06-13.14L43.06-13.14L43.06-10.57L43.06-10.57Q43.06-5.54 47.48-5.54L47.48-5.54L47.48-5.54Q51.93-5.54 51.93-10.57L51.93-10.57L51.93-13.14L51.93-13.14Q51.93-18.22 47.48-18.22L47.48-18.22ZM74.88-33.16L74.88-33.16Q75.87-33.16 77.36-32.92L77.36-32.92L77.36-32.92Q78.84-32.67 79.74-32.35L79.74-32.35L79.74-27.09L77.67-27.09L77.67-27.09Q76.23-27.09 75.69-26.55L75.69-26.55L75.69-26.55Q75.15-26.01 75.15-24.70L75.15-24.70L75.15-23.76L79.74-23.76L79.74-17.68L75.15-17.68L75.15 0L66.20 0L66.20-17.68L62.87-17.68L62.87-23.76L66.20-23.76L66.20-24.75L66.20-24.75Q66.20-29.34 68.45-31.25L68.45-31.25L68.45-31.25Q70.70-33.16 74.88-33.16L74.88-33.16ZM93.51-23.76L98.55-23.76L98.55-17.68L93.51-17.68L93.51-8.64L93.51-8.64Q93.51-7.02 94.05-6.28L94.05-6.28L94.05-6.28Q94.59-5.54 96.03-5.54L96.03-5.54L98.55-5.54L98.55-0.27L98.55-0.27Q97.47 0.09 95.76 0.32L95.76 0.32L95.76 0.32Q94.05 0.54 92.79 0.54L92.79 0.54L92.79 0.54Q88.83 0.54 86.69-0.90L86.69-0.90L86.69-0.90Q84.56-2.34 84.56-5.80L84.56-5.80L84.56-17.68L81.23-17.68L81.23-23.76L84.92-23.76L86.85-30.96L93.51-30.96L93.51-23.76ZM133.74 0L125.01 0L121.32-13.23L121.14-13.23L117.41 0L108.68 0L99.99-23.76L109.62-23.76L113.22-9.72L113.54-9.72L117.27-23.76L126.18-23.76L129.78-9.72L130.09-9.72L133.74-23.76L142.47-23.76L133.74 0ZM156.91-24.30L156.91-24.30Q162.36-24.30 165.78-22.48L165.78-22.48L165.78-22.48Q169.20-20.65 169.20-16.56L169.20-16.56L169.20-7.29L169.20-7.29Q169.20-6.52 169.56-6.03L169.56-6.03L169.56-6.03Q169.92-5.54 170.64-5.54L170.64-5.54L172.26-5.54L172.26-0.36L172.26-0.36Q172.13-0.27 171.56-0.07L171.56-0.07L171.56-0.07Q171 0.14 169.97 0.34L169.97 0.34L169.97 0.34Q168.93 0.54 167.58 0.54L167.58 0.54L167.58 0.54Q164.97 0.54 163.28-0.25L163.28-0.25L163.28-0.25Q161.59-1.03 160.97-2.43L160.97-2.43L160.97-2.43Q159.25-1.08 157.14-0.27L157.14-0.27L157.14-0.27Q155.03 0.54 152.19 0.54L152.19 0.54L152.19 0.54Q143.82 0.54 143.82-6.12L143.82-6.12L143.82-6.12Q143.82-9.58 145.69-11.41L145.69-11.41L145.69-11.41Q147.56-13.23 151.06-13.90L151.06-13.90L151.06-13.90Q154.57-14.58 160.25-14.58L160.25-14.58L160.25-15.75L160.25-15.75Q160.25-17.14 159.28-17.86L159.28-17.86L159.28-17.86Q158.31-18.59 156.78-18.59L156.78-18.59L156.78-18.59Q155.38-18.59 154.37-18.09L154.37-18.09L154.37-18.09Q153.36-17.59 153.36-16.52L153.36-16.52L153.36-16.34L144.54-16.34L144.54-16.34Q144.50-16.56 144.50-16.96L144.50-16.96L144.50-16.96Q144.50-20.34 147.71-22.32L147.71-22.32L147.71-22.32Q150.93-24.30 156.91-24.30L156.91-24.30ZM160.25-10.35L160.25-10.35Q156.42-10.35 154.60-9.52L154.60-9.52L154.60-9.52Q152.78-8.69 152.78-7.29L152.78-7.29L152.78-7.29Q152.78-5.04 155.84-5.04L155.84-5.04L155.84-5.04Q157.59-5.04 158.92-5.98L158.92-5.98L158.92-5.98Q160.25-6.93 160.25-8.32L160.25-8.32L160.25-10.35ZM189.63-24.34L189.63-24.34Q190.67-24.34 191.48-24.10L191.48-24.10L191.48-24.10Q192.29-23.85 192.29-23.80L192.29-23.80L192.29-16.29L189.41-16.29L189.41-16.29Q186.62-16.29 185.38-14.85L185.38-14.85L185.38-14.85Q184.14-13.41 184.14-10.57L184.14-10.57L184.14 0L175.19 0L175.19-23.76L182.52-23.76L183.11-20.16L183.11-20.16Q183.92-22.23 185.67-23.29L185.67-23.29L185.67-23.29Q187.43-24.34 189.63-24.34L189.63-24.34ZM207.45-24.30L207.45-24.30Q213.97-24.30 217.42-21.24L217.42-21.24L217.42-21.24Q220.86-18.18 220.86-11.88L220.86-11.88L220.86-10.35L203.04-10.35L203.04-10.35Q203.04-7.79 204.19-6.48L204.19-6.48L204.19-6.48Q205.34-5.17 207.81-5.17L207.81-5.17L207.81-5.17Q210.06-5.17 211.12-6.12L211.12-6.12L211.12-6.12Q212.18-7.06 212.18-8.64L212.18-8.64L220.86-8.64L220.86-8.64Q220.86-4.32 217.57-1.89L217.57-1.89L217.57-1.89Q214.29 0.54 207.99 0.54L207.99 0.54L207.99 0.54Q201.38 0.54 197.73-2.54L197.73-2.54L197.73-2.54Q194.09-5.63 194.09-11.88L194.09-11.88L194.09-11.88Q194.09-18 197.64-21.15L197.64-21.15L197.64-21.15Q201.19-24.30 207.45-24.30L207.45-24.30ZM207.81-18.59L207.81-18.59Q203.58-18.59 203.09-14.58L203.09-14.58L211.81-14.58L211.81-14.58Q211.81-16.43 210.76-17.50L210.76-17.50L210.76-17.50Q209.70-18.59 207.81-18.59L207.81-18.59ZM254.21-30.96L254.21-30.96Q270.45-30.96 270.45-15.48L270.45-15.48L270.45-15.48Q270.45 0 254.21 0L254.21 0L240.80 0L240.80-30.96L254.21-30.96ZM250.74-23.54L250.74-7.42L254.03-7.42L254.03-7.42Q260.28-7.42 260.28-14.13L260.28-14.13L260.28-16.83L260.28-16.83Q260.28-23.54 254.03-23.54L254.03-23.54L250.74-23.54ZM287.46-24.30L287.46-24.30Q293.99-24.30 297.43-21.24L297.43-21.24L297.43-21.24Q300.87-18.18 300.87-11.88L300.87-11.88L300.87-10.35L283.05-10.35L283.05-10.35Q283.05-7.79 284.20-6.48L284.20-6.48L284.20-6.48Q285.35-5.17 287.82-5.17L287.82-5.17L287.82-5.17Q290.07-5.17 291.13-6.12L291.13-6.12L291.13-6.12Q292.19-7.06 292.19-8.64L292.19-8.64L300.87-8.64L300.87-8.64Q300.87-4.32 297.59-1.89L297.59-1.89L297.59-1.89Q294.30 0.54 288 0.54L288 0.54L288 0.54Q281.39 0.54 277.74-2.54L277.74-2.54L277.74-2.54Q274.10-5.63 274.10-11.88L274.10-11.88L274.10-11.88Q274.10-18 277.65-21.15L277.65-21.15L277.65-21.15Q281.21-24.30 287.46-24.30L287.46-24.30ZM287.82-18.59L287.82-18.59Q283.59-18.59 283.10-14.58L283.10-14.58L291.83-14.58L291.83-14.58Q291.83-16.43 290.77-17.50L290.77-17.50L290.77-17.50Q289.71-18.59 287.82-18.59L287.82-18.59ZM320.89 0L311.49 0L302.49-23.76L312.12-23.76L316.49-8.96L316.80-8.96L321.17-23.76L329.99-23.76L320.89 0ZM344.97-24.30L344.97-24.30Q351.50-24.30 354.94-21.24L354.94-21.24L354.94-21.24Q358.38-18.18 358.38-11.88L358.38-11.88L358.38-10.35L340.56-10.35L340.56-10.35Q340.56-7.79 341.71-6.48L341.71-6.48L341.71-6.48Q342.86-5.17 345.33-5.17L345.33-5.17L345.33-5.17Q347.58-5.17 348.64-6.12L348.64-6.12L348.64-6.12Q349.69-7.06 349.69-8.64L349.69-8.64L358.38-8.64L358.38-8.64Q358.38-4.32 355.10-1.89L355.10-1.89L355.10-1.89Q351.81 0.54 345.51 0.54L345.51 0.54L345.51 0.54Q338.90 0.54 335.25-2.54L335.25-2.54L335.25-2.54Q331.61-5.63 331.61-11.88L331.61-11.88L331.61-11.88Q331.61-18 335.16-21.15L335.16-21.15L335.16-21.15Q338.72-24.30 344.97-24.30L344.97-24.30ZM345.33-18.59L345.33-18.59Q341.10-18.59 340.61-14.58L340.61-14.58L349.34-14.58L349.34-14.58Q349.34-16.43 348.28-17.50L348.28-17.50L348.28-17.50Q347.22-18.59 345.33-18.59L345.33-18.59ZM371.97 0L363.01 0L363.01-32.63L371.97-32.63L371.97 0ZM389.97-24.30L389.97-24.30Q396.23-24.30 399.80-21.13L399.80-21.13L399.80-21.13Q403.38-17.95 403.38-11.88L403.38-11.88L403.38-11.88Q403.38-5.80 399.80-2.63L399.80-2.63L399.80-2.63Q396.23 0.54 389.97 0.54L389.97 0.54L389.97 0.54Q383.72 0.54 380.16-2.61L380.16-2.61L380.16-2.61Q376.61-5.76 376.61-11.88L376.61-11.88L376.61-11.88Q376.61-18 380.16-21.15L380.16-21.15L380.16-21.15Q383.72-24.30 389.97-24.30L389.97-24.30ZM389.97-18.22L389.97-18.22Q385.56-18.22 385.56-13.14L385.56-13.14L385.56-10.57L385.56-10.57Q385.56-5.54 389.97-5.54L389.97-5.54L389.97-5.54Q394.43-5.54 394.43-10.57L394.43-10.57L394.43-13.14L394.43-13.14Q394.43-18.22 389.97-18.22L389.97-18.22ZM423.36-24.30L423.36-24.30Q428.18-24.30 430.79-21.15L430.79-21.15L430.79-21.15Q433.39-18 433.39-11.83L433.39-11.83L433.39-11.83Q433.39-5.71 430.79-2.59L430.79-2.59L430.79-2.59Q428.18 0.54 423.36 0.54L423.36 0.54L423.36 0.54Q419.22 0.54 416.70-2.16L416.70-2.16L416.70 8.87L407.75 8.87L407.75-23.76L415.04-23.76L415.80-20.38L415.80-20.38Q418.41-24.30 423.36-24.30L423.36-24.30ZM420.57-17.68L420.57-17.68Q418.59-17.68 417.60-16.29L417.60-16.29L417.60-16.29Q416.61-14.89 416.61-12.64L416.61-12.64L416.61-11.16L416.61-11.16Q416.61-8.91 417.60-7.49L417.60-7.49L417.60-7.49Q418.59-6.08 420.57-6.08L420.57-6.08L420.57-6.08Q424.44-6.08 424.44-10.71L424.44-10.71L424.44-13.09L424.44-13.09Q424.44-17.68 420.57-17.68L420.57-17.68ZM450-24.30L450-24.30Q456.52-24.30 459.97-21.24L459.97-21.24L459.97-21.24Q463.41-18.18 463.41-11.88L463.41-11.88L463.41-10.35L445.59-10.35L445.59-10.35Q445.59-7.79 446.74-6.48L446.74-6.48L446.74-6.48Q447.88-5.17 450.36-5.17L450.36-5.17L450.36-5.17Q452.61-5.17 453.67-6.12L453.67-6.12L453.67-6.12Q454.72-7.06 454.72-8.64L454.72-8.64L463.41-8.64L463.41-8.64Q463.41-4.32 460.13-1.89L460.13-1.89L460.13-1.89Q456.84 0.54 450.54 0.54L450.54 0.54L450.54 0.54Q443.93 0.54 440.28-2.54L440.28-2.54L440.28-2.54Q436.63-5.63 436.63-11.88L436.63-11.88L436.63-11.88Q436.63-18 440.19-21.15L440.19-21.15L440.19-21.15Q443.75-24.30 450-24.30L450-24.30ZM450.36-18.59L450.36-18.59Q446.13-18.59 445.63-14.58L445.63-14.58L454.37-14.58L454.37-14.58Q454.37-16.43 453.31-17.50L453.31-17.50L453.31-17.50Q452.25-18.59 450.36-18.59L450.36-18.59ZM482.17-24.34L482.17-24.34Q483.21-24.34 484.02-24.10L484.02-24.10L484.02-24.10Q484.83-23.85 484.83-23.80L484.83-23.80L484.83-16.29L481.95-16.29L481.95-16.29Q479.16-16.29 477.92-14.85L477.92-14.85L477.92-14.85Q476.68-13.41 476.68-10.57L476.68-10.57L476.68 0L467.73 0L467.73-23.76L475.06-23.76L475.65-20.16L475.65-20.16Q476.46-22.23 478.21-23.29L478.21-23.29L478.21-23.29Q479.97-24.34 482.17-24.34L482.17-24.34Z" fill="#003554"></path></g></g><style>text {
  font-size: 64px;
  font-family: Arial Black;
  dominant-baseline: central;
  text-anchor: middle;
}</style></svg>